<svg xmlns="http://www.w3.org/2000/svg" viewBox="0 0 200 200">
  <defs>
    <radialGradient id="aura" cx="50%" cy="50%" r="50%">
      <stop offset="0%" stop-color="#40E0D0" stop-opacity="0.3"/>
      <stop offset="100%" stop-color="#0B0D17" stop-opacity="0"/>
    </radialGradient>
  </defs>
  <rect width="200" height="200" fill="#0B0D17"/>
  <circle cx="100" cy="100" r="80" fill="url(#aura)"/>
  
  <!-- Simplified elegant hand outline -->
  <path d="M 60 180 Q 70 100 65 65 A 10 10 0 0 1 80 60 Q 85 90 90 100 Q 95 60 95 40 A 10 10 0 0 1 110 40 Q 110 80 115 100 Q 120 60 125 50 A 10 10 0 0 1 140 55 Q 135 100 135 120 Q 150 105 160 115 A 10 10 0 0 1 155 130 Q 140 160 140 180" fill="none" stroke="#8A2BE2" stroke-width="4" stroke-linecap="round"/>
  
  <!-- Glowing Palm Lines -->
  <!-- Heart Line -->
  <path d="M 65 105 Q 100 115 125 90" fill="none" stroke="#EE82EE" stroke-width="3" stroke-linecap="round"/>
  <!-- Head Line -->
  <path d="M 65 120 Q 100 120 135 140" fill="none" stroke="#40E0D0" stroke-width="3" stroke-linecap="round"/>
  <!-- Life Line -->
  <path d="M 80 125 Q 100 160 100 180" fill="none" stroke="#40E0D0" stroke-width="3" stroke-linecap="round"/>
</svg>
